<?xml version="1.0" encoding="utf-8"?>
<svg version="1.1" xmlns="http://www.w3.org/2000/svg" xmlns:xlink="http://www.w3.org/1999/xlink" x="0px" y="0px"
	 viewBox="0 0 190 37" enable-background="new 0 0 190 37" xml:space="preserve">
	<g fill="#FFF">
	<path d="M141.2,18.6h6.6c-0.1-1.2-0.4-2-0.9-2.6c-0.6-0.6-1.4-0.9-2.4-0.9c-1,0-1.7,0.3-2.3,0.9
		C141.6,16.7,141.2,17.5,141.2,18.6 M149,23.6h3.3c-0.5,1.8-1.4,3.2-2.7,4.1c-1.3,1-3,1.5-5.1,1.5c-2.5,0-4.4-0.8-5.8-2.4
		c-1.4-1.5-2.1-3.7-2.1-6.6c0-2.7,0.7-4.9,2-6.4c1.4-1.6,3.3-2.4,5.8-2.4c2.6,0,4.6,0.8,6.1,2.3c1.4,1.6,2.1,3.8,2.1,6.6
		c0,0.2,0,0.3,0,0.4c0,0.1,0,0.2,0,0.3c0,0.2,0,0.4-0.1,0.4h-11.3c0,1.3,0.4,2.3,1,2.9c0.6,0.7,1.4,1,2.5,1c0.7,0,1.4-0.1,1.9-0.4
		c0.1,0,0.3-0.1,0.4-0.2c0.1-0.1,0.2-0.2,0.4-0.4c0-0.1,0.2-0.3,0.5-0.5C148.1,23.7,148.5,23.6,149,23.6z M123.6,20.5
		c0,2.9,0.9,4.6,2.6,4.9c1.7,0.3,3-0.1,3.8-1.2c0.4-0.5,0.7-1.2,0.8-2.2c0.2-1,0.2-2,0-3c-0.2-1-0.5-1.9-1.1-2.6
		c-0.6-0.8-1.4-1.2-2.5-1.2c-1.5,0-2.5,0.5-3,1.6C123.8,17.9,123.6,19.1,123.6,20.5z M131,27.8v-1.1c-0.8,1.2-1.8,1.9-3.2,2.2
		c-1.3,0.3-2.6,0.2-3.9-0.3c-1.3-0.5-2.4-1.5-3.4-2.8c-0.9-1.4-1.4-3.2-1.4-5.5c0-2.6,0.6-4.8,1.9-6.4c1.2-1.6,3.2-2.5,6-2.5
		c2.1,0,4,0.6,5.8,1.7c1.8,1.1,2.7,3.2,2.7,6.1v9c0,3-0.9,5-2.7,6.1C131,35.5,129,36,127,36c-4,0-6.5-1.8-7.4-5.5h4.8
		c0.3,0.6,0.9,1.1,1.6,1.4c0.7,0.3,1.4,0.4,2.1,0.3c0.7-0.2,1.4-0.6,2-1.2C130.6,30.2,130.9,29.2,131,27.8z M118.1,28.9h-2.3
		c-0.7,0-1.2-0.2-1.6-0.6c-0.4-0.4-0.6-0.9-0.6-1.6V18c0-1-0.3-1.8-0.9-2.2c-0.6-0.5-1.3-0.7-2.1-0.7c-0.8,0-1.5,0.2-2.1,0.7
		c-0.6,0.5-0.9,1.2-0.9,2.2v10.9H103v-10c0-2.9,0.8-4.8,2.3-5.8c1.5-1,3.2-1.5,5.1-1.6c1.9,0,3.7,0.5,5.3,1.5c1.6,1,2.4,3,2.4,5.9
		V28.9z M98.4,28.2c-0.9,0.5-1.9,0.8-2.9,0.9c-1,0.1-1.9,0.2-2.7,0.2c-1.6,0-2.9-0.4-4.1-1.2c-1.2-0.8-1.8-2.2-1.8-4.1
		c0-1.8,0.5-3.1,1.6-3.8c1.1-0.8,2.4-1.3,4.1-1.5c0.2,0,0.5,0,0.8-0.1c0.3-0.1,0.7-0.1,1-0.2c1.9-0.3,2.9-0.8,2.9-1.7
		c0-0.6-0.3-1.1-1-1.2C95.6,15.1,95,15,94.4,15c-0.6,0-1.2,0.1-1.6,0.3c-0.5,0.2-0.8,0.5-1,1h-4.4c0.2-1.3,0.8-2.4,1.8-3.3
		c1.2-1,2.8-1.5,5-1.5c2.4,0,4.3,0.4,5.5,1.2c1.3,0.9,1.9,2,1.9,3.6v5.8c0,1.7-0.3,3-0.9,4C100,27,99.2,27.7,98.4,28.2z M97.3,20.3
		c-0.6,0.3-1.5,0.6-2.5,0.8c-1,0.2-1.5,0.3-1.5,0.3c-0.8,0.2-1.3,0.5-1.7,0.8c-0.3,0.5-0.5,0.9-0.5,1.4c0,0.6,0.2,1.2,0.6,1.5
		c0.4,0.3,1,0.5,1.7,0.5c1.2,0,2.2-0.3,2.9-1c0.7-0.7,1-1.6,1-2.8V20.3z M80.5,16.7c-0.7-0.9-1.5-1.3-2.7-1.3
		c-1.2,0-2.1,0.4-2.8,1.3c-0.7,0.9-1,2-1,3.5v8.7h-4.4v-22h2.2c0.6,0,1.1,0.2,1.6,0.6C73.8,8,74,8.5,74,9.1v5
		c0.8-1.3,1.9-2.1,3.3-2.4c1.4-0.3,2.8-0.3,4.1,0.3c1.2,0.5,2.2,1.3,3.1,2.4c0.8,1.1,1.2,2.6,1.2,4.6v9.9h-4.4v-8.8
		c0-0.6-0.1-1.2-0.2-1.8C81.1,17.8,80.9,17.2,80.5,16.7z M68.2,21.3c-0.2,2.6-1.2,4.6-2.9,6c-1.8,1.4-4.1,2.1-7,2.1
		c-3.4,0-6-1-7.8-3c-1.8-1.9-2.7-4.7-2.7-8.5c0-3.8,0.9-6.7,2.7-8.6c1.9-2,4.6-3,8.1-3c2.9,0,5.1,0.7,6.8,2.1
		c1.6,1.4,2.5,3.3,2.7,5.8h-2.8c-1,0-1.8-0.4-2.2-1.3c-0.3-0.6-0.7-1-1.1-1.5c-0.9-0.6-2-1-3.5-1c-2,0-3.5,0.6-4.6,1.9
		c-1,1.3-1.6,3.2-1.6,5.6c0,2.4,0.5,4.2,1.6,5.5c1,1.3,2.5,2,4.5,2c1.4,0,2.5-0.3,3.5-1c0.8-0.6,1.4-1.7,1.8-3.1H68.2z"/>
	<path d="M185.5,20.4c0-1.7-0.3-2.9-1-3.8c-0.7-0.9-1.6-1.3-2.8-1.3c-1.2,0-2.1,0.4-2.7,1.3
		c-0.6,0.8-0.9,2.1-0.9,3.8c0,1.6,0.3,2.8,1,3.6c0.7,0.9,1.6,1.3,2.8,1.3c1.1,0,2-0.4,2.7-1.3C185.2,23.2,185.5,22,185.5,20.4
		 M178.1,33c0,0.6-0.2,1.1-0.7,1.5c-0.4,0.4-1,0.6-1.6,0.6h-2.2V19.2c0-3,0.9-5,2.7-6.1c1.8-1.1,3.7-1.6,5.8-1.6
		c1.1,0,2.2,0.2,3.3,0.6c1.1,0.4,2,1,2.6,1.8c1.3,1.7,2,3.8,2,6.4c0,2.7-0.7,4.9-2,6.5c-1.3,1.6-3,2.4-5,2.4c-1.1,0-2-0.2-2.9-0.6
		c-0.9-0.4-1.6-1.1-2.1-2V33z M167.8,6.9h2.3c0.6,0,1.1,0.2,1.6,0.6c0.4,0.4,0.7,0.9,0.7,1.5v1.7h-4.6V6.9z M167.8,11.9h2.3
		c0.6,0,1.1,0.2,1.6,0.6c0.4,0.4,0.7,0.9,0.7,1.5v14.8h-4.6V11.9z M155.6,28.9V10.8H149V9.2c0-0.6,0.2-1.2,0.7-1.6
		c0.5-0.4,1-0.7,1.7-0.7h15.5v3.9h-6.6v18.1H155.6z"/>
	<path fill-rule="evenodd" clip-rule="evenodd" d="M22.5,8.6c-0.4-0.1-0.8-0.1-1.2-0.1c-0.6,0-1.3,0.1-1.9,0.4
	c-0.6,0.2-1.1,0.6-1.6,1.1c-0.4,0.4-0.8,1-1.1,1.6c-0.3,0.6-0.4,1.3-0.4,1.9c0,0.6,0.1,1.3,0.4,1.9c0.2,0.6,0.6,1.1,1.1,1.6
	c0.3,0.3,0.6,0.5,0.9,0.7l0.2-0.5c-0.3-0.2-0.5-0.4-0.6-0.6c-0.2-0.3-0.4-0.7-0.5-1.1c0-0.4,0.1-0.7,0.5-0.8c0.2-0.1,0.4-0.1,0.6,0
	c0.1,0.1,0.3,0.2,0.3,0.3c0.2,0.3,0.2,0.6,0.5,0.8c0.1,0.1,0.2,0.1,0.3,0.2l0.2,0.1c0.2,0.1,0.4,0.1,0.6,0c0.2-0.1,0.4-0.2,0.6-0.4
	c0.5-0.7,0-1.3-0.5-1.9c-0.6-0.7-1.2-1.4-1.1-2.4c0.1-0.6,0.5-1.3,1-1.6c0.3-0.2,0.8-0.4,1.3-0.4l0,0c0,0,0.1,0,0.1,0L22.5,8.6z
	 M25.6,19.3c-0.2,0.1-0.4,0.3-0.6,0.4c-0.2,0.1-0.4,0.2-0.6,0.3l0,0l0,0l0,0l0,0l0,0l0,0l0,0l0,0l0,0c-0.1,0-0.1,0.1-0.2,0.1
	c-0.1,0-0.1,0.1-0.2,0.1c-0.4,0.2-0.8,0.3-1.2,0.4c-0.4,0.1-0.9,0.2-1.3,0.2l-0.3,0l0,0c-0.4,0-0.9,0-1.3-0.1
	c-0.5-0.1-1-0.2-1.5-0.4c-0.9-0.4-1.7-0.9-2.4-1.6c-0.7-0.7-1.2-1.5-1.6-2.4c-0.4-0.9-0.6-1.8-0.6-2.8c0-0.9,0.2-1.9,0.5-2.8
	c0.4-0.9,0.9-1.7,1.6-2.4c0.7-0.7,1.5-1.2,2.4-1.6c0.9-0.4,1.8-0.6,2.8-0.6c0.9,0,1.9,0.2,2.8,0.5c0.5,0.2,1,0.5,1.4,0.7
	c0.4,0.2,0.7,0.5,1,0.8l0,0l0.2,0.2c0.3,0.3,0.6,0.7,0.8,1c0.2,0.4,0.4,0.8,0.6,1.2c0,0.1,0.1,0.2,0.1,0.3h0l0,0v0l0,0l0,0l0,0v0
	l0,0l0,0c0.1,0.2,0.1,0.4,0.2,0.6c0.2,0.8,0.3,1.6,0.2,2.4l0,0.2l-0.2-0.1l-1.1-0.4c-1.8-0.7-0.7-1.6-2.1-3.4
	c-0.3-0.3-0.6-0.6-0.9-0.9c-0.1-0.1-0.3-0.2-0.4-0.3l-0.3,0.6c0.2,0.2,0.4,0.3,0.5,0.5c0.2,0.3,0.3,0.6,0.4,0.9
	c0.1,0.3-0.1,0.7-0.5,0.8c-0.4,0.1-0.7,0-0.9-0.3c-0.1-0.1-0.1-0.3-0.2-0.5c-0.1-0.3-0.6-0.4-0.9-0.4c-0.3,0.1-0.5,0.3-0.6,0.6
	c-0.2,0.5,0.3,1,0.8,1.5c0.6,0.7,1.1,1.3,1,2.3c0,0.2-0.1,0.4-0.2,0.6c-0.2,0.4-0.4,0.7-0.7,1c-0.4,0.4-1,0.6-1.6,0.6
	c-0.1,0-0.2,0-0.3,0l-0.2,0.6c0.2,0,0.3,0.1,0.5,0.1c0.4,0.1,0.8,0.1,1.2,0c0.1,0,0.2,0,0.3,0c0.1,0,0.1,0,0.2,0l0,0l0.1,0
	c0.1,0,0.3-0.1,0.4-0.1c0.1,0,0.2-0.1,0.4-0.1c0.3-0.1,0.5-0.2,0.8-0.4c0.2-0.2,0.5-0.3,0.7-0.5l0.1-0.1l0.1,0l2,0.8l0.2,0.1
	l-0.2,0.2c-0.2,0.2-0.4,0.4-0.6,0.6c-0.2,0.2-0.3,0.3-0.5,0.4l0,0L25.6,19.3z M25.2,2.4c6.5,2.7,11,6.8,10,9.2
	c-0.1,0.1-0.1,0.3-0.2,0.4c-0.1,0.2-0.2,0.4-0.3,0.6l-8,12.4c0.6,0.3,1.2,0.6,1.8,0.9c8.8,4.5,0.1,16.6-8.5,7.3
	c-3.7-4-7.3-9-12.8-11.5c-1.4-0.6-3.7-1.2-5.7-1.2c-1.8,0-2.2-1.9,0.3-2.4c1.3-0.3,4.2-0.2,6.3,0.2L11.3,3c0.3-1.4,0.8-2,1.8-2.3
	C15.6,0,20.2,0.4,25.2,2.4z"/>
	</g>
</svg>
