<?xml version="1.0" encoding="utf-8"?>
<svg version="1.1" xmlns="http://www.w3.org/2000/svg" xmlns:xlink="http://www.w3.org/1999/xlink" x="0px" y="0px"
	 viewBox="0 0 12 12" enable-background="new 0 0 12 12" xml:space="preserve">
<path fill-rule="evenodd" clip-rule="evenodd" fill="#a4a4a4" d="M6,0c3.3,0,6,2.7,6,6c0,3.3-2.7,6-6,6c-3.3,0-6-2.7-6-6
	C0,2.7,2.7,0,6,0"/>
<path fill-rule="evenodd" clip-rule="evenodd" fill="#FFFFFF" d="M6.9,2c0.5,0,0.9,0.4,0.9,0.9S7.4,3.8,6.9,3.8C6.4,3.8,6,3.4,6,2.9
	S6.4,2,6.9,2L6.9,2z M5.6,5.2c0-0.1,0-0.2-0.1-0.2C5.2,5,4.8,5.4,4.1,6.2c0.4-1.1,1.2-2.1,2.6-2.1c0.4,0,0.7,0.2,0.7,0.6
	c0,1.2-1.4,3.3-1.4,4.1c0,0.1,0,0.2,0.1,0.2C6.4,9.1,6.9,8.8,7.5,8C7.1,9.1,6.3,10.1,4.9,10c-0.4,0-0.7-0.2-0.7-0.6
	C4.2,8.2,5.6,6.1,5.6,5.2z"/>
</svg>
